<svg xmlns="http://www.w3.org/2000/svg" viewBox="0 0 288 180">
  <g transform="translate(0,180) scale(0.01,-0.01)" fill="#ffffff">
    <path d="M12559 12056 c-115 -32 -220 -116 -276 -222 -24 -46 -118 -387 -424 -1554 l-393 -1495 0 -105 0 -105 443 -1175 c243 -646 453 -1194 466 -1216 67 -114 187 -197 325 -224 54 -11 3296 74 3412 89 45 6 102 22 135 37 70 33 161 122 196 190 53 105 1345 2921 1358 2959 19 58 17 208 -4 276 -9 32 -34 82 -54 112 -37 55 -1526 1837 -1612 1930 -45 49 -120 96 -181 116 -49 15 -3220 401 -3289 400 -31 0 -77 -7 -102 -13z m542 -726 c269 -447 336 -543 483 -700 68 -73 140 -160 160 -193 59 -100 140 -377 122 -422 -3 -9 -18 -15 -37 -15 -27 0 -46 14 -119 88 -158 159 -194 220 -279 480 -66 199 -128 329 -366 767 -252 463 -246 462 36 -5z m1104 204 c459 -80 783 -345 896 -735 l22 -75 76 -36 c87 -41 263 -157 368 -241 81 -66 156 -148 236 -259 l55 -77 35 52 c83 124 225 244 352 296 52 22 75 26 175 26 109 0 119 -2 182 -32 37 -17 87 -47 112 -65 l44 -35 -22 -65 c-28 -83 -61 -126 -139 -181 -125 -88 -356 -147 -578 -147 -72 0 -115 -5 -135 -14 -107 -54 -434 -36 -754 40 -405 96 -899 322 -1166 535 -63 50 -134 135 -134 160 0 8 -25 34 -56 59 -79 63 -235 228 -284 301 -86 125 -130 265 -116 362 l7 46 87 27 c82 25 237 58 312 67 95 11 341 6 425 -9z m-1594 -773 c121 -126 213 -348 280 -676 12 -60 28 -119 35 -130 18 -28 60 -200 81 -335 28 -178 25 -682 -5 -875 -38 -244 -103 -469 -159 -552 -14 -20 -38 -80 -53 -133 -107 -358 -254 -606 -408 -688 -33 -18 -67 -32 -75 -32 -19 0 -33 41 -48 140 -12 82 -6 183 17 260 16 55 93 174 151 234 53 55 183 137 281 176 81 32 82 33 67 54 -163 225 -246 535 -232 871 l7 151 -56 55 c-117 114 -204 269 -251 447 -23 85 -26 117 -26 257 0 129 4 178 21 251 42 180 107 327 218 497 35 53 69 97 76 97 7 0 42 -31 79 -69z m3224 -1602 c169 -23 332 -82 372 -133 10 -12 56 -40 103 -61 305 -138 490 -360 556 -670 43 -205 -6 -527 -112 -737 -38 -75 -165 -169 -293 -216 -129 -48 -302 -25 -420 54 -69 47 -168 148 -223 229 l-43 63 -82 -79 c-112 -107 -276 -227 -397 -290 -55 -28 -103 -54 -105 -55 -2 -2 9 -32 24 -66 47 -105 66 -178 72 -283 6 -112 -5 -167 -58 -283 -61 -135 -237 -277 -429 -346 -133 -48 -195 -57 -322 -45 -305 30 -560 139 -738 318 -128 128 -201 263 -241 442 -18 81 -20 117 -16 253 3 122 1 167 -9 192 -54 130 62 465 253 732 364 506 995 883 1635 976 115 17 370 20 473 5z m-2839 -1706 c-4 -16 -58 -197 -121 -403 -109 -360 -136 -454 -185 -640 -56 -214 -73 -250 -116 -250 -44 0 -42 74 7 185 45 104 177 465 335 913 72 204 96 265 80 195z m-148 -1455 c2 -12 -5 -19 -23 -24 -34 -8 -53 9 -35 31 17 20 54 16 58 -7z"/>
  </g>
</svg>

